<mxfile host="app.diagrams.net" agent="Mozilla/5.0 (Macintosh; Intel Mac OS X 10_15_7) AppleWebKit/605.1.15 (KHTML, like Gecko) Version/17.5 Safari/605.1.15" version="26.0.13" pages="2">
  <diagram name="Страница — 1" id="znvyeuuVf6_Rv6n8cO5N">
    <mxGraphModel dx="972" dy="592" grid="1" gridSize="10" guides="1" tooltips="1" connect="1" arrows="1" fold="1" page="1" pageScale="1" pageWidth="827" pageHeight="1169" math="0" shadow="0">
      <root>
        <mxCell id="0" />
        <mxCell id="1" parent="0" />
        <mxCell id="Gheg792PcNf3L9mFb-PX-3" value="Cameras" style="swimlane;childLayout=stackLayout;horizontal=1;startSize=50;horizontalStack=0;rounded=1;fontSize=14;fontStyle=0;strokeWidth=2;resizeParent=0;resizeLast=1;shadow=0;dashed=0;align=center;arcSize=4;whiteSpace=wrap;html=1;fillColor=#f8cecc;strokeColor=#b85450;" vertex="1" parent="1">
          <mxGeometry x="30" y="70" width="160" height="160" as="geometry" />
        </mxCell>
        <mxCell id="pgKUtUWO4fRESYDd45WB-26" value="&lt;span style=&quot;color: rgb(204, 0, 0);&quot;&gt;Camera ID&lt;/span&gt;&lt;div&gt;camera name&lt;/div&gt;&lt;div&gt;brand&lt;/div&gt;&lt;div&gt;film type&lt;/div&gt;&lt;div&gt;lens&lt;/div&gt;" style="align=left;strokeColor=none;fillColor=none;spacingLeft=4;fontSize=12;verticalAlign=top;resizable=0;rotatable=0;part=1;html=1;" vertex="1" parent="Gheg792PcNf3L9mFb-PX-3">
          <mxGeometry y="50" width="160" height="110" as="geometry" />
        </mxCell>
        <mxCell id="Gheg792PcNf3L9mFb-PX-4" value="&lt;div&gt;&lt;br&gt;&lt;/div&gt;" style="align=left;strokeColor=none;fillColor=none;spacingLeft=4;fontSize=12;verticalAlign=top;resizable=0;rotatable=0;part=1;html=1;" vertex="1" parent="Gheg792PcNf3L9mFb-PX-3">
          <mxGeometry y="160" width="160" as="geometry" />
        </mxCell>
        <mxCell id="pgKUtUWO4fRESYDd45WB-2" value="Users" style="swimlane;childLayout=stackLayout;horizontal=1;startSize=50;horizontalStack=0;rounded=1;fontSize=14;fontStyle=0;strokeWidth=2;resizeParent=0;resizeLast=1;shadow=0;dashed=0;align=center;arcSize=4;whiteSpace=wrap;html=1;fillColor=#d5e8d4;strokeColor=#82b366;" vertex="1" parent="1">
          <mxGeometry x="350" y="200" width="160" height="160" as="geometry" />
        </mxCell>
        <mxCell id="pgKUtUWO4fRESYDd45WB-3" value="&lt;u&gt;User ID&lt;/u&gt;&lt;div&gt;username&lt;/div&gt;&lt;div&gt;password&lt;/div&gt;&lt;div&gt;email&lt;/div&gt;&lt;div&gt;profile pic&lt;/div&gt;&lt;div&gt;join date&lt;/div&gt;&lt;div&gt;&lt;br&gt;&lt;/div&gt;" style="align=left;strokeColor=none;fillColor=none;spacingLeft=4;fontSize=12;verticalAlign=top;resizable=0;rotatable=0;part=1;html=1;" vertex="1" parent="pgKUtUWO4fRESYDd45WB-2">
          <mxGeometry y="50" width="160" height="110" as="geometry" />
        </mxCell>
        <mxCell id="pgKUtUWO4fRESYDd45WB-7" value="Photos" style="swimlane;childLayout=stackLayout;horizontal=1;startSize=50;horizontalStack=0;rounded=1;fontSize=14;fontStyle=0;strokeWidth=2;resizeParent=0;resizeLast=1;shadow=0;dashed=0;align=center;arcSize=4;whiteSpace=wrap;html=1;fillColor=#dae8fc;strokeColor=#6c8ebf;" vertex="1" parent="1">
          <mxGeometry x="25" y="280" width="170" height="180" as="geometry" />
        </mxCell>
        <mxCell id="pgKUtUWO4fRESYDd45WB-8" value="Photo ID&lt;div&gt;&lt;span style=&quot;color: rgb(204, 0, 0);&quot;&gt;Camera ID&lt;/span&gt;&lt;/div&gt;&lt;div&gt;&lt;u style=&quot;color: rgb(0, 102, 0);&quot;&gt;User ID&lt;/u&gt;&lt;/div&gt;&lt;div&gt;upload date&lt;/div&gt;&lt;div&gt;tags&lt;/div&gt;&lt;div&gt;&lt;span style=&quot;color: rgb(255, 181, 112);&quot;&gt;film ID&lt;/span&gt;&lt;/div&gt;&lt;div&gt;place&lt;/div&gt;&lt;div&gt;&lt;br&gt;&lt;/div&gt;" style="align=left;strokeColor=none;fillColor=none;spacingLeft=4;fontSize=12;verticalAlign=top;resizable=0;rotatable=0;part=1;html=1;" vertex="1" parent="pgKUtUWO4fRESYDd45WB-7">
          <mxGeometry y="50" width="170" height="130" as="geometry" />
        </mxCell>
        <mxCell id="pgKUtUWO4fRESYDd45WB-15" value="Articles" style="swimlane;childLayout=stackLayout;horizontal=1;startSize=50;horizontalStack=0;rounded=1;fontSize=14;fontStyle=0;strokeWidth=2;resizeParent=0;resizeLast=1;shadow=0;dashed=0;align=center;arcSize=4;whiteSpace=wrap;html=1;" vertex="1" parent="1">
          <mxGeometry x="600" y="90" width="160" height="160" as="geometry" />
        </mxCell>
        <mxCell id="pgKUtUWO4fRESYDd45WB-16" value="Article ID&lt;div&gt;&lt;span style=&quot;background-color: light-dark(#ffffff, var(--ge-dark-color, #121212)); color: rgb(0, 102, 0);&quot;&gt;&lt;u&gt;User ID&lt;/u&gt;&lt;/span&gt;&lt;/div&gt;&lt;div&gt;title&amp;nbsp;&lt;/div&gt;&lt;div&gt;publish date&lt;/div&gt;&lt;div&gt;theme&lt;/div&gt;" style="align=left;strokeColor=none;fillColor=none;spacingLeft=4;fontSize=12;verticalAlign=top;resizable=0;rotatable=0;part=1;html=1;" vertex="1" parent="pgKUtUWO4fRESYDd45WB-15">
          <mxGeometry y="50" width="160" height="110" as="geometry" />
        </mxCell>
        <mxCell id="pgKUtUWO4fRESYDd45WB-17" value="Likes" style="swimlane;childLayout=stackLayout;horizontal=1;startSize=50;horizontalStack=0;rounded=1;fontSize=14;fontStyle=0;strokeWidth=2;resizeParent=0;resizeLast=1;shadow=0;dashed=0;align=center;arcSize=4;whiteSpace=wrap;html=1;" vertex="1" parent="1">
          <mxGeometry x="610" y="330" width="160" height="120" as="geometry" />
        </mxCell>
        <mxCell id="pgKUtUWO4fRESYDd45WB-18" value="Like ID&amp;nbsp;&lt;div&gt;&lt;span style=&quot;color: rgb(0, 102, 0);&quot;&gt;&lt;u&gt;User&lt;/u&gt; ID&lt;/span&gt;&lt;/div&gt;&lt;div&gt;Photo ID&lt;/div&gt;&lt;div&gt;time of like&lt;/div&gt;" style="align=left;strokeColor=none;fillColor=none;spacingLeft=4;fontSize=12;verticalAlign=top;resizable=0;rotatable=0;part=1;html=1;" vertex="1" parent="pgKUtUWO4fRESYDd45WB-17">
          <mxGeometry y="50" width="160" height="70" as="geometry" />
        </mxCell>
        <mxCell id="pgKUtUWO4fRESYDd45WB-19" value="Comments" style="swimlane;childLayout=stackLayout;horizontal=1;startSize=50;horizontalStack=0;rounded=1;fontSize=14;fontStyle=0;strokeWidth=2;resizeParent=0;resizeLast=1;shadow=0;dashed=0;align=center;arcSize=4;whiteSpace=wrap;html=1;" vertex="1" parent="1">
          <mxGeometry x="390" y="420" width="160" height="120" as="geometry" />
        </mxCell>
        <mxCell id="pgKUtUWO4fRESYDd45WB-20" value="Like ID&amp;nbsp;&lt;div&gt;&lt;span style=&quot;background-color: light-dark(#ffffff, var(--ge-dark-color, #121212)); color: rgb(0, 102, 0);&quot;&gt;&lt;u&gt;User ID&lt;/u&gt;&lt;/span&gt;&lt;/div&gt;&lt;div&gt;Photo ID&lt;/div&gt;&lt;div&gt;time of comment&lt;/div&gt;" style="align=left;strokeColor=none;fillColor=none;spacingLeft=4;fontSize=12;verticalAlign=top;resizable=0;rotatable=0;part=1;html=1;" vertex="1" parent="pgKUtUWO4fRESYDd45WB-19">
          <mxGeometry y="50" width="160" height="70" as="geometry" />
        </mxCell>
        <mxCell id="pgKUtUWO4fRESYDd45WB-21" style="edgeStyle=orthogonalEdgeStyle;rounded=0;orthogonalLoop=1;jettySize=auto;html=1;entryX=0;entryY=0.5;entryDx=0;entryDy=0;strokeColor=#97D077;" edge="1" parent="1" source="pgKUtUWO4fRESYDd45WB-3" target="pgKUtUWO4fRESYDd45WB-15">
          <mxGeometry relative="1" as="geometry" />
        </mxCell>
        <mxCell id="pgKUtUWO4fRESYDd45WB-22" style="edgeStyle=orthogonalEdgeStyle;rounded=0;orthogonalLoop=1;jettySize=auto;html=1;exitX=-0.025;exitY=0.109;exitDx=0;exitDy=0;exitPerimeter=0;entryX=1;entryY=0.5;entryDx=0;entryDy=0;strokeColor=light-dark(#97D077,#EDEDED);" edge="1" parent="1" source="pgKUtUWO4fRESYDd45WB-3" target="pgKUtUWO4fRESYDd45WB-8">
          <mxGeometry relative="1" as="geometry">
            <mxPoint x="230" y="580" as="targetPoint" />
          </mxGeometry>
        </mxCell>
        <mxCell id="pgKUtUWO4fRESYDd45WB-24" value="" style="edgeStyle=orthogonalEdgeStyle;rounded=0;orthogonalLoop=1;jettySize=auto;html=1;strokeColor=#97D077;entryX=0;entryY=0.171;entryDx=0;entryDy=0;entryPerimeter=0;" edge="1" parent="1">
          <mxGeometry relative="1" as="geometry">
            <mxPoint x="350" y="360" as="sourcePoint" />
            <mxPoint x="390" y="491.97" as="targetPoint" />
            <Array as="points">
              <mxPoint x="350" y="321" />
              <mxPoint x="300" y="321" />
              <mxPoint x="300" y="492" />
            </Array>
          </mxGeometry>
        </mxCell>
        <mxCell id="pgKUtUWO4fRESYDd45WB-25" value="" style="edgeStyle=orthogonalEdgeStyle;rounded=0;orthogonalLoop=1;jettySize=auto;html=1;exitX=1;exitY=0.673;exitDx=0;exitDy=0;exitPerimeter=0;entryX=0;entryY=0.5;entryDx=0;entryDy=0;strokeColor=#97D077;" edge="1" parent="1" source="pgKUtUWO4fRESYDd45WB-3" target="pgKUtUWO4fRESYDd45WB-18">
          <mxGeometry relative="1" as="geometry">
            <mxPoint x="500" y="450" as="targetPoint" />
          </mxGeometry>
        </mxCell>
        <mxCell id="pgKUtUWO4fRESYDd45WB-27" style="edgeStyle=orthogonalEdgeStyle;rounded=0;orthogonalLoop=1;jettySize=auto;html=1;exitX=1;exitY=0.25;exitDx=0;exitDy=0;entryX=0.994;entryY=0.085;entryDx=0;entryDy=0;entryPerimeter=0;strokeColor=#CC0000;" edge="1" parent="1" source="Gheg792PcNf3L9mFb-PX-3" target="pgKUtUWO4fRESYDd45WB-8">
          <mxGeometry relative="1" as="geometry">
            <mxPoint x="240" y="570" as="targetPoint" />
            <Array as="points">
              <mxPoint x="190" y="190" />
              <mxPoint x="240" y="190" />
              <mxPoint x="240" y="353" />
              <mxPoint x="194" y="353" />
            </Array>
          </mxGeometry>
        </mxCell>
        <mxCell id="pgKUtUWO4fRESYDd45WB-29" value="Lomography Database" style="rounded=1;arcSize=10;whiteSpace=wrap;html=1;align=center;gradientColor=light-dark(#FF99FF,#FFFFFF);" vertex="1" parent="1">
          <mxGeometry x="334" y="60" width="170" height="40" as="geometry" />
        </mxCell>
        <mxCell id="pgKUtUWO4fRESYDd45WB-30" value="Films" style="swimlane;childLayout=stackLayout;horizontal=1;startSize=50;horizontalStack=0;rounded=1;fontSize=14;fontStyle=0;strokeWidth=2;resizeParent=0;resizeLast=1;shadow=0;dashed=0;align=center;arcSize=4;whiteSpace=wrap;html=1;fillColor=#ffe6cc;strokeColor=#d79b00;" vertex="1" parent="1">
          <mxGeometry x="30" y="500" width="160" height="120" as="geometry" />
        </mxCell>
        <mxCell id="pgKUtUWO4fRESYDd45WB-31" value="&lt;span style=&quot;color: light-dark(rgb(255, 106, 0), rgb(237, 237, 237));&quot;&gt;Film ID&lt;/span&gt;&lt;div&gt;Film name&lt;/div&gt;&lt;div&gt;ISO&lt;/div&gt;&lt;div&gt;Colortype&lt;/div&gt;" style="align=left;strokeColor=none;fillColor=none;spacingLeft=4;fontSize=12;verticalAlign=top;resizable=0;rotatable=0;part=1;html=1;" vertex="1" parent="pgKUtUWO4fRESYDd45WB-30">
          <mxGeometry y="50" width="160" height="70" as="geometry" />
        </mxCell>
        <mxCell id="pgKUtUWO4fRESYDd45WB-36" style="edgeStyle=orthogonalEdgeStyle;rounded=0;orthogonalLoop=1;jettySize=auto;html=1;exitX=1;exitY=0.5;exitDx=0;exitDy=0;entryX=1;entryY=0.75;entryDx=0;entryDy=0;strokeColor=#FFB570;" edge="1" parent="1" source="pgKUtUWO4fRESYDd45WB-31" target="pgKUtUWO4fRESYDd45WB-8">
          <mxGeometry relative="1" as="geometry">
            <Array as="points">
              <mxPoint x="240" y="585" />
              <mxPoint x="240" y="428" />
            </Array>
          </mxGeometry>
        </mxCell>
      </root>
    </mxGraphModel>
  </diagram>
  <diagram id="qketsI1QG-eeR5-U-WZm" name="Страница — 2">
    <mxGraphModel grid="1" page="1" gridSize="10" guides="1" tooltips="1" connect="1" arrows="1" fold="1" pageScale="1" pageWidth="827" pageHeight="1169" math="0" shadow="0">
      <root>
        <mxCell id="0" />
        <mxCell id="1" parent="0" />
      </root>
    </mxGraphModel>
  </diagram>
</mxfile>
